<?xml version="1.0" ?><svg height="128" viewBox="0 0 128 128" width="128" xmlns="http://www.w3.org/2000/svg"><title/><path d="M89,56.5A10.5,10.5,0,1,0,78.5,67,10.5,10.5,0,0,0,89,56.5Zm-30,0a10.5,10.5,0,0,0-21,0l-.64.15A68.53,68.53,0,0,1,32,44l-.37-1.32a125,125,0,0,0,28-7.61l4,2.56s17.63,11.18,45.64,11h0a71,71,0,0,1,1.18,7C107.69,58.91,92.88,75,62.93,83.82A62.72,62.72,0,0,1,43.52,66.4l.46-.35A10.57,10.57,0,0,0,59,56.5Z" style="fill: #586775"/><path d="M45.52,87.74c-.5.09-1,.16-1.52.24a200.27,200.27,0,0,1-27.46-8.26A72.94,72.94,0,0,1,15,64.5,72,72,0,0,1,17.07,47l.1,0L18,50S24.65,74,45.52,87.74Z" style="fill: #efefef"/><path d="M22.19,99.89,10,107l-.07-8.15L4,93l15.47-3.54a50,50,0,0,0,3.85,7.71c.28.46.57.91.87,1.36Z" style="fill: #efefef"/><path d="M22.19,99.89l2-1.36c-.3-.45-.59-.9-.87-1.36a50,50,0,0,1-3.85-7.71l-5.69,1.3c1.47,3.15,3.36,6.86,5.63,10.75Z" style="fill: #d2d2d1"/><path d="M124,82l-5.28,8.29L118,99l-10.91-6.29-1.76-.47a57.82,57.82,0,0,0,4-11.86Z" style="fill: #d2d2d1"/><path d="M124,82l-5.28,8.29L118,99l-4.72-10.12a5.27,5.27,0,0,1,5.36-7.47Z" style="fill: #efefef"/><path d="M103.92,95c-8.49,0-16.61-.44-24.24-1.17l0-.23A110.6,110.6,0,0,0,109,78.09l.75.15c-.14.72-.28,1.44-.44,2.14a57.82,57.82,0,0,1-4,11.86C104.89,93.19,104.42,94.12,103.92,95Z" style="fill: #efefef"/><path d="M109.32,80.38c.16-.7.3-1.42.44-2.14l-.75-.15A110.6,110.6,0,0,1,79.7,93.62l0,.23c3.54.34,7.2.61,10.93.81a111.18,111.18,0,0,0,17.32-9.18C108.46,83.82,108.93,82.12,109.32,80.38Z" style="fill: #d2d2d1"/><path d="M59.63,35.07a125,125,0,0,1-28,7.61c-4.3.68-8.9,1.22-13.81,1.58a51.59,51.59,0,0,1,7-14.78h0a120.26,120.26,0,0,0,19.48-4.1h0C58.78,21,67.6,15.06,71.79,11.65A45.51,45.51,0,0,1,86.61,16.5l-1.4,1.78a44.12,44.12,0,0,1-8.92,7.83A85.11,85.11,0,0,1,59.63,35.07Z" style="fill: #efefef"/><path d="M59.63,35.07a125,125,0,0,1-28,7.61c-4.3.68-8.9,1.22-13.81,1.58a51.59,51.59,0,0,1,7-14.78h0a120.26,120.26,0,0,0,19.48-4.1h0C58.78,21,67.6,15.06,71.79,11.65A45.51,45.51,0,0,1,86.61,16.5l-1.4,1.78a44.12,44.12,0,0,1-8.92,7.83A85.11,85.11,0,0,1,59.63,35.07Z" style="fill: #efefef"/><path d="M59.63,35.07a125,125,0,0,1-28,7.61c-4.3.68-8.9,1.22-13.81,1.58a51.59,51.59,0,0,1,7-14.78h0a120.26,120.26,0,0,0,19.48-4.1h0C58.78,21,67.6,15.06,71.79,11.65A45.51,45.51,0,0,1,86.61,16.5l-1.4,1.78a44.12,44.12,0,0,1-8.92,7.83A85.11,85.11,0,0,1,59.63,35.07Z" style="fill: #efefef"/><path d="M59.63,35.07a125,125,0,0,1-28,7.61c-4.3.68-8.9,1.22-13.81,1.58a51.59,51.59,0,0,1,7-14.78h0a120.26,120.26,0,0,0,19.48-4.1h0C58.78,21,67.6,15.06,71.79,11.65A45.51,45.51,0,0,1,86.61,16.5l-1.4,1.78a44.12,44.12,0,0,1-8.92,7.83A85.11,85.11,0,0,1,59.63,35.07Z" style="fill: #efefef"/><path d="M45.52,87.74C24.65,74,18,50,18,50l-.83-3-.1,0c.23-.92.48-1.83.75-2.72,4.91-.36,9.51-.9,13.81-1.58L32,44a68.53,68.53,0,0,0,5.36,12.65,76.88,76.88,0,0,0,6.16,9.75A62.72,62.72,0,0,0,62.93,83.82,138,138,0,0,1,45.52,87.74Z" style="fill: #efefef"/><path d="M45.52,87.74l-.13.57s-9.94-2.45-13.9-3.59A77.23,77.23,0,0,1,15.21,58.8a68.33,68.33,0,0,1,1.32-9.44l1.26-.12L18,50S24.65,74,45.52,87.74Z" style="fill: #d2d2d1"/><path d="M62.93,83.82C92.88,75,107.69,58.91,110.5,55.61a78.4,78.4,0,0,1,.5,8.89,73.92,73.92,0,0,1-1.24,13.74l-.75-.15A110.6,110.6,0,0,1,79.7,93.62l0,.23A268.38,268.38,0,0,1,44,88c.51-.08,1-.15,1.52-.24A138,138,0,0,0,62.93,83.82Z" style="fill: #efefef"/><path d="M23.32,97.17A262.11,262.11,0,0,0,91,109.69l0,.06C83.71,115,74.37,118,63,118c-18,0-30.94-7.58-38.81-19.47C23.89,98.08,23.6,97.63,23.32,97.17Z" style="fill: #efefef"/><path d="M91,109.69l0,.06a41.71,41.71,0,0,1-11.29,5.69,261,261,0,0,1-50.54-10.65s-3.47-3.93-4.53-5.54c-.3-.63-.58-1.27-.85-1.91A262.54,262.54,0,0,0,91,109.69Z" style="fill: #d2d2d1"/><path d="M16.54,79.72C26.73,83.9,61.71,95,103.92,95A43.24,43.24,0,0,1,91,109.75l0-.06A262.11,262.11,0,0,1,23.32,97.17,55.27,55.27,0,0,1,16.54,79.72Z" style="fill: #efefef"/><path d="M48.5,46a10.53,10.53,0,1,1-4.52,20l-.46.35a76.88,76.88,0,0,1-6.16-9.75L38,56.5A10.5,10.5,0,0,1,48.5,46Z" style="fill: #fcb641"/><path d="M78.5,46A10.5,10.5,0,1,1,68,56.5,10.5,10.5,0,0,1,78.5,46Z" style="fill: #fcb641"/><path d="M84,58a1.5,1.5,0,0,1-1.5-1.5,4,4,0,0,0-4-4,1.5,1.5,0,0,1,0-3,7,7,0,0,1,7,7A1.5,1.5,0,0,1,84,58Z" style="fill: #fff"/><path d="M78.5,63.5a7,7,0,0,1-7-7,1.5,1.5,0,0,1,3,0,4,4,0,0,0,4,4,1.5,1.5,0,0,1,0,3Z" style="fill: #ed971b"/><path d="M54,58a1.5,1.5,0,0,1-1.5-1.5,4,4,0,0,0-4-4,1.5,1.5,0,0,1,0-3,7,7,0,0,1,7,7A1.5,1.5,0,0,1,54,58Z" style="fill: #fff"/><path d="M48.5,63.5a7,7,0,0,1-7-7,1.5,1.5,0,0,1,3,0,4,4,0,0,0,4,4,1.5,1.5,0,0,1,0,3Z" style="fill: #ed971b"/><path d="M86.61,16.5A42.22,42.22,0,0,1,103,32.43c-11.57-.73-24.62-5.52-26.75-6.32a44.12,44.12,0,0,0,8.92-7.83Z" style="fill: #efefef"/><path d="M109.31,48.61c-28,.2-45.64-11-45.64-11l-4-2.56a85.11,85.11,0,0,0,16.66-9c2.13.8,15.18,5.59,26.75,6.32A54.73,54.73,0,0,1,109.31,48.61Z" style="fill: #efefef"/><path d="M109.32,48.61h0c-17.4.12-34.41-3.87-49.68-13.54a126,126,0,0,1-28,7.61,46.4,46.4,0,0,0,1.55,4.81,136.05,136.05,0,0,0,21.71-5.33,9.61,9.61,0,0,1,7.75.64,74,74,0,0,0,10.49,4.69,10.48,10.48,0,0,1,14.64,4.09,104.58,104.58,0,0,0,10.56,1.54,3.43,3.43,0,0,1,1.8,6.12A133.11,133.11,0,0,1,58,80.65a56.14,56.14,0,0,0,4.94,3.17c30-8.85,44.76-24.91,47.57-28.21C110.3,53.88,109.71,50.4,109.32,48.61Z" style="fill: #48545e"/><path d="M98.25,48.09a39.42,39.42,0,0,1-6,22.62S106,62.87,110.5,55.61l-1.18-7A94.45,94.45,0,0,1,98.25,48.09Z" style="fill: #efefef"/><path d="M109.32,48.61a94.44,94.44,0,0,1-11.07-.52,28.43,28.43,0,0,1-.09,5.08c3.22.39,7.68.86,12.11,1.1Z" style="fill: #d2d2d1"/><path d="M109.31,48.61c-28,.2-45.64-11-45.64-11l-4-2.56a85.11,85.11,0,0,0,16.66-9c2.13.8,15.18,5.59,26.75,6.32A54.73,54.73,0,0,1,109.31,48.61Z" style="fill: #efefef"/><path d="M86.61,16.5c-6.74,8.57-17.35,14.62-27,18.57,4.39,2.78,4.16,2.66,5.17,3.22C75.38,33.57,83.89,28,90.92,19.18A41.27,41.27,0,0,0,86.61,16.5Z" style="fill: #d2d2d1"/><path d="M34.84,19.33l9.51,6.05a120.26,120.26,0,0,1-19.48,4.1A42,42,0,0,1,34.84,19.33Z" style="fill: #efefef"/><path d="M63,11a57.48,57.48,0,0,1,8.79.65c-4.19,3.41-13,9.38-27.43,13.73h0l-9.51-6.05C42.18,14.06,51.57,11,63,11Z" style="fill: #efefef"/><path d="M44.36,25.38C58.78,21,67.6,15.06,71.79,11.65A56.8,56.8,0,0,0,64.14,11,86.51,86.51,0,0,1,38.68,21.77l5.67,3.61Z" style="fill: #d2d2d1"/><path d="M48.5,56.5l3,1.83a3.5,3.5,0,1,1,0-3.6Z" style="fill: #31352e"/><path d="M78.5,56.5l3,1.8a3.5,3.5,0,1,1,0-3.57Z" style="fill: #31352e"/><path d="M124.33,79l-6.05-.67c-4-.41-4.58,5.53-.66,6l1.26.14c-3.68,5.78-3,3.77-3.48,9.58l-6-3.48C121.9,59.19,111.07,8,63,8,10.95,8,2.88,67.92,20.11,97.63L13,101.8c0-4.79.35-3.85-3-7.1l2.14-.49c3.86-.88,2.54-6.72-1.34-5.85-7.56,1.73-9.07,1.6-9.7,3.81s.78,3,5.83,7.93c.06,6.95-.37,8.39,1.57,9.5s2.39.34,14.93-7C32.48,114.65,46.1,121,63,121c20,0,35.39-9.23,43.82-25,9.92,5.72,10.66,6.64,12.57,5.64s1.58-2.16,2.26-10.38l4.88-7.67A3,3,0,0,0,124.33,79ZM35,23l2,1.25q-2.18.52-4.51,1Q33.69,24,35,23Zm9.94,40.24c-1.52-2.16-2.85-4.28-4-6.3a3,3,0,0,0,0-.43,7.5,7.5,0,1,1,11.64,6.26C50.09,64.45,47.66,64.17,44.95,63.23ZM29.48,46C36,66.1,51.64,81.09,54.57,81.09a3,3,0,0,0,1.91-5.32,60,60,0,0,1-6.18-5.89A13.5,13.5,0,0,0,62,56.5c0-13.39-17.57-18.63-24.86-7.26-.75-1.74-1.29-3.18-1.65-4.23,19.14-3.58,32.43-10.09,40.91-15.67,3.87,1.4,14.61,5,24.85,6a51.92,51.92,0,0,1,4.17,10.25,92.2,92.2,0,0,1-36.12-8.33c-3.59-1.71-6.15,3.71-2.58,5.42,1.39.66,3.09,1.41,5.05,2.19C59.84,51.72,64.75,70,78.5,70A13.51,13.51,0,0,0,90.33,50q2.4.43,5,.76a38.14,38.14,0,0,1-5.24,17.82C79.71,75,65.35,81.38,46.23,84.59c-12.57-8.68-22-23.39-25.93-37.53Q25.08,46.65,29.48,46ZM86,56.5A7.5,7.5,0,1,1,78.5,49,7.51,7.51,0,0,1,86,56.5Zm19,8.67c3-2.56-.84-7.14-3.87-4.58-.52.44-1.07.89-1.63,1.34a43,43,0,0,0,1.81-10.56c1.79.12,3.65.19,5.54.22a74.59,74.59,0,0,1,.35,24.13A101.2,101.2,0,0,1,93.4,84.37c-3.52,1.84-.72,7.16,2.78,5.31,3.14-1.65,6.16-3.43,9-5.32a50.49,50.49,0,0,1-3,7.63,258.48,258.48,0,0,1-43.14-4C81,82.39,95.89,72.85,105,65.17ZM96.81,28.66A109.42,109.42,0,0,1,82.32,25l.59-.48c3.05-2.53-.77-7.15-3.83-4.62C63.77,32.62,42,38.85,22.17,40.86a46.6,46.6,0,0,1,4.41-8.59c24.45-3.41,39-12,46-17.45C83.32,16.72,91.23,21.79,96.81,28.66ZM63.11,14a87.29,87.29,0,0,1-18.34,8.08l-4.31-2.74A46.47,46.47,0,0,1,63.11,14ZM31.5,102.83a268.29,268.29,0,0,0,49.06,9.11C66.85,117.17,45.06,116.77,31.5,102.83Zm58.73,3.81a258.75,258.75,0,0,1-64.89-12c-6.17-10.59-8-23.59-7.13-35.67a78,78,0,0,0,16,23.35c-1-.28-3.09-.85-6.78-2s-5.6,4.52-1.82,5.72A267.29,267.29,0,0,0,98.68,98,39.22,39.22,0,0,1,90.23,106.64Z" style="fill: #31352e"/></svg>